<svg width="25" height="25" viewBox="0 0 25 25" fill="none" xmlns="http://www.w3.org/2000/svg">
<path d="M17.1665 10.5H19.1665C21.1665 10.5 22.1665 9.5 22.1665 7.5V5.5C22.1665 3.5 21.1665 2.5 19.1665 2.5H17.1665C15.1665 2.5 14.1665 3.5 14.1665 5.5V7.5C14.1665 9.5 15.1665 10.5 17.1665 10.5Z" stroke="#CCCCCC" stroke-width="1.5" stroke-miterlimit="10" stroke-linecap="round" stroke-linejoin="round"/>
<path d="M5.1665 22.5H7.1665C9.1665 22.5 10.1665 21.5 10.1665 19.5V17.5C10.1665 15.5 9.1665 14.5 7.1665 14.5H5.1665C3.1665 14.5 2.1665 15.5 2.1665 17.5V19.5C2.1665 21.5 3.1665 22.5 5.1665 22.5Z" stroke="#CCCCCC" stroke-width="1.5" stroke-miterlimit="10" stroke-linecap="round" stroke-linejoin="round"/>
<path d="M6.1665 10.5C8.37564 10.5 10.1665 8.70914 10.1665 6.5C10.1665 4.29086 8.37564 2.5 6.1665 2.5C3.95736 2.5 2.1665 4.29086 2.1665 6.5C2.1665 8.70914 3.95736 10.5 6.1665 10.5Z" stroke="#CCCCCC" stroke-width="1.5" stroke-miterlimit="10" stroke-linecap="round" stroke-linejoin="round"/>
<path d="M18.1665 22.5C20.3756 22.5 22.1665 20.7091 22.1665 18.5C22.1665 16.2909 20.3756 14.5 18.1665 14.5C15.9574 14.5 14.1665 16.2909 14.1665 18.5C14.1665 20.7091 15.9574 22.5 18.1665 22.5Z" stroke="#CCCCCC" stroke-width="1.5" stroke-miterlimit="10" stroke-linecap="round" stroke-linejoin="round"/>
</svg>
