<svg width="43" height="41" viewBox="0 0 43 41" fill="none" xmlns="http://www.w3.org/2000/svg">
<path d="M23.3785 1.38051C22.6433 -0.00924172 20.3568 -0.00924172 19.6215 1.38051L0.496534 37.5055C0.324374 37.8293 0.239025 38.1922 0.248802 38.5587C0.258579 38.9253 0.363149 39.2831 0.552323 39.5973C0.741497 39.9114 1.00882 40.1712 1.32825 40.3513C1.64768 40.5314 2.00832 40.6257 2.37503 40.625H40.625C40.9915 40.6258 41.3519 40.5316 41.6711 40.3516C41.9903 40.1716 42.2574 39.9119 42.4464 39.5979C42.6354 39.284 42.7398 38.9264 42.7494 38.56C42.7591 38.1937 42.6736 37.8311 42.5014 37.5076L23.3785 1.38051ZM23.625 34.25H19.375V30H23.625V34.25ZM19.375 25.75V15.125H23.625L23.6272 25.75H19.375Z" fill="#FF0000"/>
</svg>
