<svg width="25" height="24" viewBox="0 0 25 24" fill="none" xmlns="http://www.w3.org/2000/svg">
<path d="M22.1002 10.2H12.7002V13.9H18.2002C18.1002 14.8 17.5002 16.2 16.2002 17.1C15.4002 17.7 14.2002 18.1 12.7002 18.1C10.1002 18.1 7.8002 16.4 7.0002 13.9C6.8002 13.3 6.7002 12.6 6.7002 11.9C6.7002 11.2 6.8002 10.5 7.0002 9.9C7.1002 9.7 7.1002 9.5 7.2002 9.4C8.1002 7.3 10.2002 5.8 12.7002 5.8C14.6002 5.8 15.8002 6.6 16.6002 7.3L19.4002 4.5C17.7002 3 15.4002 2 12.7002 2C8.8002 2 5.4002 4.2 3.8002 7.5C3.1002 8.9 2.7002 10.4 2.7002 12C2.7002 13.6 3.1002 15.1 3.8002 16.5C5.4002 19.8 8.8002 22 12.7002 22C15.4002 22 17.7002 21.1 19.3002 19.6C21.2002 17.9 22.3002 15.3 22.3002 12.2C22.3002 11.4 22.2002 10.8 22.1002 10.2Z" stroke="#242424" stroke-width="1.5" stroke-miterlimit="10" stroke-linecap="round" stroke-linejoin="round"/>
</svg>
