<svg width="25" height="25" viewBox="0 0 25 25" fill="none" xmlns="http://www.w3.org/2000/svg">
<path d="M2.83337 2.5H4.57338C5.65338 2.5 6.50338 3.43 6.41338 4.5L5.58337 14.46C5.44337 16.09 6.73337 17.49 8.37337 17.49H19.0234C20.4634 17.49 21.7234 16.31 21.8334 14.88L22.3734 7.38C22.4934 5.72 21.2334 4.37 19.5634 4.37H6.65338" stroke="#CCCCCC" stroke-width="1.5" stroke-miterlimit="10" stroke-linecap="round" stroke-linejoin="round"/>
<path d="M17.0834 22.5C17.7737 22.5 18.3334 21.9404 18.3334 21.25C18.3334 20.5596 17.7737 20 17.0834 20C16.393 20 15.8334 20.5596 15.8334 21.25C15.8334 21.9404 16.393 22.5 17.0834 22.5Z" stroke="#CCCCCC" stroke-width="1.5" stroke-miterlimit="10" stroke-linecap="round" stroke-linejoin="round"/>
<path d="M9.08337 22.5C9.77373 22.5 10.3334 21.9404 10.3334 21.25C10.3334 20.5596 9.77373 20 9.08337 20C8.39302 20 7.83337 20.5596 7.83337 21.25C7.83337 21.9404 8.39302 22.5 9.08337 22.5Z" stroke="#CCCCCC" stroke-width="1.5" stroke-miterlimit="10" stroke-linecap="round" stroke-linejoin="round"/>
<path d="M9.83337 8.5H21.8334" stroke="#CCCCCC" stroke-width="1.5" stroke-miterlimit="10" stroke-linecap="round" stroke-linejoin="round"/>
</svg>
